<svg xmlns="http://www.w3.org/2000/svg" version="1.1" xmlns:xlink="http://www.w3.org/1999/xlink" xmlns:svgjs="http://svgjs.dev/svgjs" width="32" height="32"><svg xmlns="http://www.w3.org/2000/svg" viewBox="0 0 32 32"><circle fill="#0C2530" cx="16" cy="16" r="16"></circle><path fill="#FFF" d="M26.9 10.4c-.2-.7-.6-1.3-1.1-1.8-.5-.5-1.1-1-1.9-1.3-.8-.3-1.7-.5-2.9-.5h-8.2v3.1H19.9c.5 0 .9 0 1.3.1s.8.2 1.1.4c.3.2.6.5.8.8.2.4.3.8.3 1.4 0 .6-.1 1-.3 1.4-.2.4-.5.6-.8.8-.3.2-.7.3-1.1.4-.4.1-.9.1-1.3.1h-3.1v-3.4h-4V20c0 .3-.1.7-.2 1-.1.3-.3.5-.6.7-.3.2-.7.3-1.2.3s-.9-.1-1.1-.2c-.3-.2-.5-.4-.7-.6-.2-.3-.3-.6-.4-.9-.1-.4-.1-.8-.1-1.2v-.8H4.8v1.6c0 1 .2 1.8.5 2.5s.8 1.3 1.3 1.7c.6.4 1.2.8 1.9 1 .7.2 1.4.3 2.2.3 1.3 0 2.4-.2 3.2-.6.8-.4 1.4-.9 1.8-1.5.4-.6.7-1.3.8-2 .1-.7.2-1.4.2-1.9v-.8H21c1.1 0 2.1-.2 2.9-.5.8-.3 1.4-.8 1.9-1.3s.9-1.2 1.1-1.9c.2-.7.3-1.4.3-2.1 0-1-.1-1.7-.3-2.4z"></path></svg><style>@media (prefers-color-scheme: light) { :root { filter: none; } }
@media (prefers-color-scheme: dark) { :root { filter: none; } }
</style></svg>