<svg xmlns="http://www.w3.org/2000/svg" viewBox="0 0 723 395"><path fill="none" stroke="#000" stroke-miterlimit="10" d="M20.5 39v129.7S19.4 197.2.6 190.2"/><path class="logo__dot" fill="none" stroke="#F00" stroke-miterlimit="10" d="M21 1.1c6.5.5 4.2 17.7 0 18.2S14.4.6 21 1.1z"/><path fill="none" stroke="#000" stroke-miterlimit="10" d="M55.5 49.2c8.4-4.7 38.3-15.9 41.1 10.3.3 2.7 0 87.1 0 87.1"/><path fill="none" stroke="#000" stroke-miterlimit="10" d="M96.6 87c-9.8.9-48.6.5-44.4 32.7s30.3 33.6 44.4 6.1M137.5 39.8l-1.2 103.5M226.4 146.6c.8-82.6 7.5-103.7-19.6-103.8S183 63.3 181.6 146.6"/><path fill="none" stroke="#000" stroke-miterlimit="10" d="M181.6 146.6c.8-82.6 7.5-103.7-19.6-103.8S137.7 62 136.3 145.2M259 87.5h50.5s3.3-44.6-23.8-44.7c-27.1-.1-26.6 40.7-26.6 47.5 0 6.8 1.8 53.9 25.3 54.2s24.6-6.1 26.3-7.2M377.5 47.5c-4.9-2.6-28-11.2-38.5 4.9s1.9 29.2 16.8 39.1c14.9 9.9 22.6 20.2 19.6 33.3-3 13.1-8.2 19.2-21.5 19.6-13.3.5-21.7-6.5-23.3-7.2M99.5 393V292s-6-52.1 28-52.1c28 0 28 102.5 0 102.5s-28.1-43.6-28.1-49.9c.1-6.2-.3-53.1-.3-55.4M187.2 343.1c0-141.7-4-155.5 27.3-148M169.9 244.6c5.6-3.5 4.4-3.7 38.5-4.2M228.5 191v151M264 283.5h51.1s3.3-44.6-23.8-44.7c-27.1-.1-26.6 40.8-26.6 47.5 0 6.8 1.8 53.9 25.3 54.2s24.3-6.1 26-7.3M467 283.5h49.8s3.3-44.6-23.8-44.7c-27.1-.1-26.6 40.8-26.6 47.5 0 6.8 1.8 53.9 25.3 54.2 23.5.2 25-6.1 26.6-7.3M601 283.5h50.3s3.3-44.6-23.8-44.7c-27.1-.1-26.6 40.8-26.6 47.5 0 6.8 1.8 53.9 25.3 54.2s24.7-6.1 26.4-7.3M345.5 236v106M436.5 342V191M435.6 272.3c-3-9.3-10-32.8-27.1-33.4-17-.6-27.3 23.1-27.3 50.8 0 27.7 6.1 52.5 26.5 52.7s27.4-32 27.9-33.4M585.4 240.9c-2.8.9-32.9-31.3-32.9 101.5V236M721.4 240.9c-2.8.9-32.9-31.3-32.9 101.5V236"/><path class="logo__dot" fill="none" stroke="#F00" stroke-miterlimit="10" d="M345.9 202.8c6.5.5 4.2 17.7 0 18.2s-6.5-18.7 0-18.2z"/></svg>